<?xml version="1.0" encoding="UTF-8" standalone="no"?>
<!DOCTYPE svg PUBLIC "-//W3C//DTD SVG 1.1//EN" "http://www.w3.org/Graphics/SVG/1.1/DTD/svg11.dtd">
<svg width="100%" height="100%" viewBox="0 0 218 175" version="1.1" xmlns="http://www.w3.org/2000/svg" xmlns:xlink="http://www.w3.org/1999/xlink" xml:space="preserve" xmlns:serif="http://www.serif.com/" style="fill-rule:evenodd;clip-rule:evenodd;stroke-linejoin:round;stroke-miterlimit:2;">
    <g transform="matrix(1,0,0,1,-3465.86,-465.18)">
        <g transform="matrix(0.197556,0,0,0.197556,2628.43,147.477)">
            <g transform="matrix(0.75,0,0,0.75,3255.55,536.499)">
                <path d="M2631.12,2019.45C2631.12,2345.38 2366.5,2610 2040.57,2610C1877.6,2610 1729.96,2543.85 1623.06,2436.95L1692.65,2367.37C1781.73,2456.45 1904.76,2511.58 2040.57,2511.58C2274,2511.58 2469.7,2348.69 2520.09,2130.47L2631.12,2019.45ZM1450.01,2019.45C1450.01,1693.52 1714.63,1428.9 2040.57,1428.9C2203.53,1428.9 2351.17,1495.05 2458.07,1601.95L2388.48,1671.53C2299.4,1582.45 2176.37,1527.32 2040.57,1527.32C1807.13,1527.32 1611.43,1690.21 1561.04,1908.43L1450.01,2019.45Z"/>
            </g>
            <g transform="matrix(1,0,0,1,2788.94,31.6364)">
                <path d="M1450.01,2019.45L1597.65,2240.91L1745.29,2019.45L1597.65,2167.09L1450.01,2019.45Z"/>
            </g>
            <g transform="matrix(-1,-1.22465e-16,1.22465e-16,-1,6792.32,4070.53)">
                <path d="M1450.01,2019.45L1597.65,2240.91L1745.29,2019.45L1597.65,2167.09L1450.01,2019.45Z"/>
            </g>
        </g>
    </g>
</svg>
